<?xml version="1.0" ?><svg height="58px" version="1.1" viewBox="0 0 58 58" width="58px" xmlns="http://www.w3.org/2000/svg" xmlns:xlink="http://www.w3.org/1999/xlink"><title/><desc/><defs/><g fill="none" fill-rule="evenodd" id="Page-1" stroke="none" stroke-width="1"><g id="Icons" transform="translate(-1200.000000, -608.000000)"><g id="30--Cow--(animal,-wild,-pet)" transform="translate(1200.000000, 608.000000)"><path d="M58,29.0071 C58,45.0231 45.016,58.0071 29,58.0071 C12.984,58.0071 4.54747351e-13,45.0231 4.54747351e-13,29.0071 C4.54747351e-13,12.9911 12.984,0.0071 29,0.0071 C45.016,0.0071 58,12.9911 58,29.0071" fill="#24AE5F" id="Fill-104"/><path d="M42.9143,30.1624 C42.6383,30.2464 42.3533,30.3084 42.0603,30.3324 L34.1363,30.9924 C32.9343,31.0934 31.7493,30.6594 30.8963,29.8064 L29.8823,28.7924 C28.8643,27.7744 28.4553,26.2954 28.8043,24.8984 L28.8733,24.6224 C29.1103,23.6724 29.0003,22.6694 28.5623,21.7944 C27.7733,20.2154 28.0823,18.3094 29.3313,17.0614 L31.1613,15.2304 C30.4553,15.0964 29.7373,15.0074 29.0003,15.0074 C21.2683,15.0074 15.0003,22.6184 15.0003,32.0074 C15.0003,35.0844 15.6833,37.9624 16.8613,40.4524 C18.7263,36.6874 23.4503,34.0074 29.0003,34.0074 C34.5493,34.0074 39.2743,36.6874 41.1393,40.4524 C42.3163,37.9624 43.0003,35.0844 43.0003,32.0074 C43.0003,31.3834 42.9683,30.7684 42.9143,30.1624" fill="#ECF0F1" id="Fill-106"/><path d="M42.9144,30.1624 C42.2344,22.5124 37.3724,16.4024 31.1614,15.2304 L29.3304,17.0614 C28.0824,18.3094 27.7734,20.2154 28.5624,21.7944 C29.0004,22.6694 29.1104,23.6724 28.8734,24.6224 L28.8044,24.8984 C28.4544,26.2954 28.8644,27.7744 29.8824,28.7924 L30.8964,29.8064 C31.7494,30.6594 32.9344,31.0934 34.1364,30.9924 L42.0604,30.3324 C42.3534,30.3084 42.6384,30.2464 42.9144,30.1624" fill="#35495E" id="Fill-108"/><path d="M42,43.0071 C42,48.5301 36.18,53.0071 29,53.0071 C21.82,53.0071 16,48.5301 16,43.0071 C16,37.4841 21.82,33.0071 29,33.0071 C36.18,33.0071 42,37.4841 42,43.0071" fill="#FAC176" id="Fill-526"/><path d="M29,33.0071 C29.338,33.0071 29.669,33.0261 30,33.0461 C23.289,33.4401 18,37.7441 18,43.0071 C18,48.2701 23.289,52.5741 30,52.9681 C29.669,52.9881 29.338,53.0071 29,53.0071 C21.82,53.0071 16,48.5301 16,43.0071 C16,37.4841 21.82,33.0071 29,33.0071" fill="#FBCE91" id="Fill-528"/><path d="M39.9353,21.4081 C41.4743,23.7461 42.5073,26.5871 42.8563,29.6961 C48.3793,25.8241 49.4423,18.0071 49.4423,18.0071 C47.8243,18.0071 43.5213,19.7871 39.9353,21.4081" fill="#BDC3C7" id="Fill-530"/><path d="M18.0553,21.4234 C14.4773,19.8064 10.1973,18.0384 8.5853,18.0384 C8.5853,18.0384 9.6443,25.8284 15.1433,29.7074 C15.4893,26.6004 16.5203,23.7614 18.0553,21.4234" fill="#BDC3C7" id="Fill-532"/><path d="M27,42.0071 C27,43.6641 25.657,45.0071 24,45.0071 C22.343,45.0071 21,43.6641 21,42.0071 C21,40.3501 22.343,39.0071 24,39.0071 C25.657,39.0071 27,40.3501 27,42.0071" fill="#D75D72" id="Fill-534"/><path d="M37,42.0071 C37,43.6641 35.657,45.0071 34,45.0071 C32.343,45.0071 31,43.6641 31,42.0071 C31,40.3501 32.343,39.0071 34,39.0071 C35.657,39.0071 37,40.3501 37,42.0071" fill="#D75D72" id="Fill-536"/><path d="M29,50.0071 C27.1,50.0071 25.336,49.6061 24.034,48.8771 C23.552,48.6071 23.38,47.9971 23.65,47.5151 C23.919,47.0331 24.527,46.8601 25.011,47.1321 C26.005,47.6881 27.458,48.0071 29,48.0071 C30.539,48.0071 31.992,47.6891 32.985,47.1341 C33.468,46.8641 34.075,47.0381 34.346,47.5191 C34.615,48.0021 34.442,48.6111 33.96,48.8801 C32.659,49.6071 30.897,50.0071 29,50.0071" fill="#D75D72" id="Fill-538"/><path d="M38,25.0071 C38,27.2161 36.657,29.0071 35,29.0071 C33.343,29.0071 32,27.2161 32,25.0071 C32,22.7981 33.343,21.0071 35,21.0071 C36.657,21.0071 38,22.7981 38,25.0071" fill="#ECF0F1" id="Fill-540"/><path d="M24.626,15.8651 C22.949,13.2751 21,9.3361 21,5.0071 C21,5.0071 13.056,9.2531 19.531,19.5111 C20.982,17.8891 22.709,16.6311 24.626,15.8651" fill="#F9EBB0" id="Fill-542"/><path d="M38.4688,19.5108 C44.9438,9.2528 36.9998,5.0068 36.9998,5.0068 C36.9998,9.3368 35.0508,13.2748 33.3738,15.8648 C35.2908,16.6308 37.0178,17.8888 38.4688,19.5108" fill="#F9EBB0" id="Fill-544"/><path d="M37,26.5071 C37,27.8881 36.105,29.0071 35,29.0071 C33.895,29.0071 33,27.8881 33,26.5071 C33,25.1261 33.895,24.0071 35,24.0071 C36.105,24.0071 37,25.1261 37,26.5071" fill="#35495E" id="Fill-686"/><path d="M37,25.0071 C37,25.5591 36.552,26.0071 36,26.0071 C35.448,26.0071 35,25.5591 35,25.0071 C35,24.4551 35.448,24.0071 36,24.0071 C36.552,24.0071 37,24.4551 37,25.0071" fill="#FFFFFF" id="Fill-688"/><path d="M26,25.0071 C26,27.2161 24.657,29.0071 23,29.0071 C21.343,29.0071 20,27.2161 20,25.0071 C20,22.7981 21.343,21.0071 23,21.0071 C24.657,21.0071 26,22.7981 26,25.0071" fill="#BDC3C7" id="Fill-690"/><path d="M25,26.0071 C25,27.6641 24.105,29.0071 23,29.0071 C21.895,29.0071 21,27.6641 21,26.0071 C21,24.3501 21.895,23.0071 23,23.0071 C24.105,23.0071 25,24.3501 25,26.0071" fill="#35495E" id="Fill-692"/><path d="M25,24.0071 C25,24.5591 24.552,25.0071 24,25.0071 C23.448,25.0071 23,24.5591 23,24.0071 C23,23.4551 23.448,23.0071 24,23.0071 C24.552,23.0071 25,23.4551 25,24.0071" fill="#FFFFFF" id="Fill-694"/><path d="M29,58.0071 C29.503,58.0071 30.003,57.9941 30.5,57.9691 C15.181,57.1881 3,44.5201 3,29.0071 C3,13.4941 15.181,0.8261 30.5,0.0451 C30.003,0.0201 29.503,0.0071 29,0.0071 C12.984,0.0071 4.54747351e-13,12.9911 4.54747351e-13,29.0071 C4.54747351e-13,45.0231 12.984,58.0071 29,58.0071" fill="#7CCF9F" id="Fill-826"/><path d="M29,33.0071 C28.662,33.0071 28.331,33.0261 28,33.0461 C34.711,33.4401 40,37.7441 40,43.0071 C40,48.2701 34.711,52.5741 28,52.9681 C28.331,52.9881 28.662,53.0071 29,53.0071 C36.18,53.0071 42,48.5301 42,43.0071 C42,37.4841 36.18,33.0071 29,33.0071" fill="#E0A865" id="Fill-834"/><path d="M29,0.0071 C28.497,0.0071 27.997,0.0201 27.5,0.0451 C42.819,0.8261 55,13.4941 55,29.0071 C55,44.5201 42.819,57.1881 27.5,57.9691 C27.997,57.9941 28.497,58.0071 29,58.0071 C45.016,58.0071 58,45.0231 58,29.0071 C58,12.9911 45.016,0.0071 29,0.0071" fill="#1C934C" id="Fill-918"/></g></g></g></svg>